<?xml version="1.0" encoding="UTF-8" standalone="no"?>
<!-- Created with Inkscape (http://www.inkscape.org/) -->

<svg
   xmlns:dc="http://purl.org/dc/elements/1.1/"
   xmlns:cc="http://creativecommons.org/ns#"
   xmlns:rdf="http://www.w3.org/1999/02/22-rdf-syntax-ns#"
   xmlns:svg="http://www.w3.org/2000/svg"
   xmlns="http://www.w3.org/2000/svg"
   version="1.1"
   width="30"
   height="30"
   id="svg2"
   xml:space="preserve"><metadata
     id="metadata8"><rdf:RDF><cc:Work
         rdf:about=""><dc:format>image/svg+xml</dc:format><dc:type
           rdf:resource="http://purl.org/dc/dcmitype/StillImage" /><dc:title></dc:title></cc:Work></rdf:RDF></metadata><defs
     id="defs6"><clipPath
       id="clipPath16"><path
         d="m 0,0.5 23,0 0,22.999 -23,0 L 0,0.5 z"
         id="path18" /></clipPath></defs><g
     transform="matrix(1.25,0,0,-1.25,0,30)"
     id="g10"><g
       id="g12"
       style="fill:#000000"><g
         clip-path="url(#clipPath16)"
         id="g14"
         style="fill:#000000"><g
           transform="translate(7.4412,17.2467)"
           id="g20"
           style="fill:#000000"><path
             d="m 0,0 0.019,-0.019 0.074,-0.065 c 0.246,-0.214 0.543,-0.355 0.859,-0.418 0.148,0.041 0.296,0.097 0.443,0.17 0.243,0.121 0.436,0.241 0.592,0.337 0.319,0.198 0.386,0.239 0.719,0.239 0.096,0 0.187,-0.003 0.273,-0.011 C 3.51,0.584 4.072,0.799 4.699,0.889 4.167,1.243 3.556,1.463 2.706,1.463 1.767,1.463 1.552,1.108 0.85,0.757 0.676,0.67 0.51,0.63 0.364,0.63 c -0.448,0 -0.721,0.373 -0.557,0.905 0.248,0.806 -0.298,1.077 -0.716,1.077 -0.071,0 -0.138,-0.008 -0.198,-0.022 -0.29,-0.072 -0.507,-0.748 -0.617,-1.762 0.616,-0.136 1.172,-0.4 1.702,-0.811 L 0,0 z"
             id="path22"
             style="fill:#000000;fill-opacity:1;fill-rule:nonzero;stroke:none" /></g><g
           transform="translate(22.216,11.753)"
           id="g24"
           style="fill:#000000"><path
             d="m 0,0 c 0.138,0.355 0.243,0.776 0.327,1.213 0.543,3.317 0.26,6.708 -0.41,6.871 -0.061,0.013 -0.128,0.021 -0.199,0.021 -0.417,0 -0.963,-0.27 -0.715,-1.076 0.164,-0.532 -0.109,-0.905 -0.556,-0.905 -0.146,0 -0.313,0.04 -0.488,0.127 -0.7,0.35 -0.917,0.706 -1.855,0.706 -0.254,0 -0.488,-0.021 -0.702,-0.058 0.153,-0.281 0.274,-0.685 0.364,-1.179 0.106,0.011 0.215,0.019 0.338,0.019 0.332,0 0.399,-0.041 0.719,-0.24 0.156,-0.096 0.349,-0.215 0.592,-0.337 0.339,-0.17 0.685,-0.257 1.032,-0.257 0.34,0 0.664,0.087 0.939,0.247 0.037,-1.507 -0.109,-3.58 -0.643,-5.502 -0.884,-3.18 -1.543,-3.18 -2.073,-3.18 -0.098,0 -0.207,0.004 -0.333,0.013 -0.348,0.027 -0.659,0.04 -0.951,0.04 -0.141,0 -0.278,-0.005 -0.411,-0.01 -0.153,-0.47 -0.308,-0.895 -0.473,-1.269 0.265,0.04 0.553,0.061 0.884,0.061 0.261,0 0.546,-0.011 0.86,-0.037 0.145,-0.01 0.288,-0.016 0.424,-0.016 1.358,0 2.292,0.641 3.247,4.071 0.169,0.611 0.304,1.249 0.41,1.89 C 0.243,0.776 0.138,0.355 0,0"
             id="path26"
             style="fill:#000000;fill-opacity:1;fill-rule:nonzero;stroke:none" /></g><g
           transform="translate(17.9358,10.9766)"
           id="g28"
           style="fill:#000000"><path
             d="M 0,0 C 2.463,0.673 2.437,1.334 2.268,1.619 2.125,1.862 1.208,2.039 0.144,1.885 0.09,1.242 0.012,0.597 -0.093,-0.027 -0.035,-0.01 0,0 0,0"
             id="path30"
             style="fill:#000000;fill-opacity:1;fill-rule:nonzero;stroke:none" /></g><g
           transform="translate(17.363,14.9304)"
           id="g32"
           style="fill:#000000"><path
             d="M 0,0 C 0,-0.021 0,-0.04 -0.001,-0.07 -0.001,-0.047 0,-0.024 0,0"
             id="path34"
             style="fill:#000000;fill-opacity:1;fill-rule:nonzero;stroke:none" /></g><g
           transform="translate(17.3623,14.8557)"
           id="g36"
           style="fill:#000000"><path
             d="M 0,0 C -0.002,-0.305 -0.017,-1.045 -0.08,-1.893 -0.028,-1.239 -0.001,-0.6 0,0"
             id="path38"
             style="fill:#000000;fill-opacity:1;fill-rule:nonzero;stroke:none" /></g><g
           transform="translate(16.9587,10.6958)"
           id="g40"
           style="fill:#000000"><path
             d="M 0,0 C 0.007,0.003 0.014,0.004 0.021,0.006 0.065,0.242 0.105,0.48 0.142,0.719 0.101,0.471 0.053,0.228 0,0"
             id="path42"
             style="fill:#000000;fill-opacity:1;fill-rule:nonzero;stroke:none" /></g><g
           transform="translate(12.8308,9.0829)"
           id="g44"
           style="fill:#000000"><path
             d="m 0,0 c 0,0 -1.361,-0.392 -1.893,-0.546 -0.531,-0.156 -0.672,0.195 -0.517,0.675 0.109,0.335 0.423,0.85 1.044,1.24 0.261,0.165 0.571,0.309 0.952,0.404 0.06,0.016 0.119,0.029 0.177,0.041 C 0.98,2.079 2.107,1.89 2.269,1.619 2.437,1.334 2.462,0.672 0,0 M -5.671,-0.311 C -5.713,-0.533 -5.891,-0.647 -6.236,-0.546 -6.768,-0.392 -8.128,0 -8.128,0 c -2.463,0.672 -2.436,1.334 -2.269,1.619 0.169,0.284 1.4,0.48 2.683,0.154 0.756,-0.191 1.255,-0.56 1.574,-0.931 0.222,-0.258 0.358,-0.516 0.422,-0.713 0.055,-0.17 0.07,-0.32 0.047,-0.44 M 4.371,8.159 C 4.276,8.731 4.143,9.143 3.979,9.323 3.932,9.374 3.884,9.405 3.835,9.418 3.774,9.431 3.707,9.439 3.638,9.439 3.265,9.439 2.794,9.222 2.872,8.602 2.882,8.528 2.894,8.45 2.921,8.363 3.085,7.83 2.812,7.457 2.365,7.457 2.218,7.457 2.053,7.497 1.878,7.586 1.177,7.935 0.961,8.291 0.022,8.291 -0.524,8.291 -0.97,8.197 -1.363,8.038 -1.67,7.914 -1.945,7.75 -2.202,7.552 L -2.286,7.504 C -2.76,7.075 -3.389,6.812 -4.08,6.812 c -0.669,0 -1.28,0.248 -1.749,0.656 L -5.91,7.539 c -0.019,0.015 -0.038,0.029 -0.059,0.043 -0.354,0.266 -0.738,0.474 -1.206,0.594 -0.29,0.074 -0.611,0.115 -0.976,0.115 -0.938,0 -1.153,-0.356 -1.855,-0.705 -0.174,-0.089 -0.34,-0.129 -0.487,-0.129 -0.447,0 -0.72,0.373 -0.556,0.906 0.247,0.806 -0.299,1.076 -0.716,1.076 -0.071,0 -0.138,-0.008 -0.197,-0.021 -0.801,-0.195 -1.05,-5.39 0,-9.167 0.954,-3.429 1.888,-4.071 3.244,-4.071 0.138,0 0.279,0.006 0.426,0.018 0.313,0.022 0.599,0.034 0.859,0.034 1.067,0 1.738,-0.197 2.33,-0.612 0.356,-0.25 0.541,-0.84 1.011,-0.883 l 10e-4,-0.01 c 0.009,0 0.017,0.004 0.027,0.005 0.01,-0.001 0.018,-0.005 0.027,-0.005 l 0.001,0.01 c 0.47,0.043 0.654,0.633 1.011,0.883 0.591,0.415 1.263,0.612 2.329,0.612 0.262,0 0.546,-0.012 0.861,-0.034 0.146,-0.012 0.286,-0.018 0.424,-0.018 0.882,0 1.584,0.277 2.231,1.409 0.222,0.388 0.439,0.874 0.654,1.492 0.12,0.348 0.239,0.736 0.361,1.17 0.121,0.44 0.225,0.9 0.314,1.368 C 4.141,1.617 4.135,1.616 4.128,1.613 4.181,1.841 4.229,2.084 4.27,2.332 c 0.063,0.416 0.114,0.835 0.154,1.25 0.009,0.1 0.018,0.199 0.027,0.297 0.063,0.849 0.079,1.589 0.081,1.895 l 0,0.003 c 0,0.03 0,0.05 0,0.071 C 4.53,6.742 4.473,7.543 4.371,8.159"
             id="path46"
             style="fill:#000000;fill-opacity:1;fill-rule:nonzero;stroke:none" /></g></g></g></g></svg>