<?xml version="1.0" encoding="UTF-8" standalone="no"?>
<!-- Created with Inkscape (http://www.inkscape.org/) -->

<svg
   xmlns:dc="http://purl.org/dc/elements/1.1/"
   xmlns:cc="http://creativecommons.org/ns#"
   xmlns:rdf="http://www.w3.org/1999/02/22-rdf-syntax-ns#"
   xmlns:svg="http://www.w3.org/2000/svg"
   xmlns="http://www.w3.org/2000/svg"
   version="1.1"
   width="30"
   height="30"
   id="svg2"
   xml:space="preserve"><metadata
     id="metadata8"><rdf:RDF><cc:Work
         rdf:about=""><dc:format>image/svg+xml</dc:format><dc:type
           rdf:resource="http://purl.org/dc/dcmitype/StillImage" /><dc:title></dc:title></cc:Work></rdf:RDF></metadata><defs
     id="defs6"><clipPath
       id="clipPath16"><path
         d="m 1.908,5 13.999,0 0,13.999 -13.999,0 0,-13.999 z"
         id="path18" /></clipPath></defs><g
     transform="matrix(1.25,0,0,-1.25,0,30)"
     id="g10"><g
       id="g12"
       style="fill:#000000"><g
         clip-path="url(#clipPath16)"
         id="g14"
         style="fill:#000000"><g
           transform="translate(15.724,13.7024)"
           id="g20"
           style="fill:#000000"><path
             d="m 0,0 c -1.083,-3.804 -6.825,-8.392 -6.825,-8.392 0,0 -5.742,4.588 -6.825,8.392 -0.113,0.365 -0.175,0.753 -0.175,1.156 0,2.109 1.672,3.82 3.733,3.82 1.566,0 2.77,-0.987 3.26,-2.385 10e-4,-0.001 0.007,-0.002 0.007,-0.002 0,0 0.005,10e-4 0.007,0.002 0.49,1.398 1.694,2.385 3.259,2.385 2.062,0 3.734,-1.711 3.734,-3.82 C 0.175,0.753 0.113,0.365 0,0"
             id="path22"
             style="fill:#000000;fill-opacity:1;fill-rule:evenodd;stroke:none" /></g></g></g></g></svg>