<?xml version="1.0" encoding="UTF-8" standalone="no"?>
<!-- Created with Inkscape (http://www.inkscape.org/) -->

<svg
   xmlns:dc="http://purl.org/dc/elements/1.1/"
   xmlns:cc="http://creativecommons.org/ns#"
   xmlns:rdf="http://www.w3.org/1999/02/22-rdf-syntax-ns#"
   xmlns:svg="http://www.w3.org/2000/svg"
   xmlns="http://www.w3.org/2000/svg"
   version="1.1"
   width="30"
   height="30"
   id="svg2"
   xml:space="preserve"><metadata
     id="metadata8"><rdf:RDF><cc:Work
         rdf:about=""><dc:format>image/svg+xml</dc:format><dc:type
           rdf:resource="http://purl.org/dc/dcmitype/StillImage" /><dc:title></dc:title></cc:Work></rdf:RDF></metadata><defs
     id="defs6"><clipPath
       id="clipPath16"><path
         d="m 0.077,3 18,0 0,18 -18,0 0,-18 z"
         id="path18" /></clipPath></defs><g
     transform="matrix(1.25,0,0,-1.25,0,30)"
     id="g10"><g
       id="g12"
       style="fill:#000000"><g
         clip-path="url(#clipPath16)"
         id="g14"
         style="fill:#000000"><g
           transform="translate(15.9245,12.0868)"
           id="g20"
           style="fill:#000000"><path
             d="m 0,0 c 0.015,-0.119 0.025,-0.241 0.025,-0.364 0,-1.713 -1.394,-3.107 -3.106,-3.107 l -8.39,0 0,2.807 -4.376,-3.536 4.376,-3.537 0,2.622 8.39,0 c 2.62,0 4.752,2.131 4.752,4.751 0,0.528 -0.09,1.05 -0.266,1.553 L 0,0 z"
             id="path22"
             style="fill:#000000;fill-opacity:1;fill-rule:nonzero;stroke:none" /></g><g
           transform="translate(2.2285,11.4501)"
           id="g24"
           style="fill:#000000"><path
             d="m 0,0 c -0.015,0.12 -0.024,0.241 -0.024,0.364 0,1.713 1.394,3.107 3.107,3.107 l 8.39,0 0,-2.806 4.375,3.536 -4.375,3.536 0,-2.621 -8.39,0 c -2.62,0 -4.751,-2.131 -4.751,-4.752 0,-0.528 0.088,-1.049 0.264,-1.554 L 0,0 z"
             id="path26"
             style="fill:#000000;fill-opacity:1;fill-rule:nonzero;stroke:none" /></g></g></g></g></svg>