<?xml version="1.0" encoding="UTF-8" standalone="no"?>
<!-- Created with Inkscape (http://www.inkscape.org/) -->

<svg
   xmlns:dc="http://purl.org/dc/elements/1.1/"
   xmlns:cc="http://creativecommons.org/ns#"
   xmlns:rdf="http://www.w3.org/1999/02/22-rdf-syntax-ns#"
   xmlns:svg="http://www.w3.org/2000/svg"
   xmlns="http://www.w3.org/2000/svg"
   version="1.1"
   width="35"
   height="25"
   id="svg2"
   xml:space="preserve"><metadata
     id="metadata8"><rdf:RDF><cc:Work
         rdf:about=""><dc:format>image/svg+xml</dc:format><dc:type
           rdf:resource="http://purl.org/dc/dcmitype/StillImage" /><dc:title></dc:title></cc:Work></rdf:RDF></metadata><defs
     id="defs6"><clipPath
       id="clipPath16"><path
         d="M 0,20 28,20 28,0 0,0 0,20 z"
         id="path18" /></clipPath><clipPath
       id="clipPath24"><path
         d="m -4,28 36,0 0,-36 -36,0 0,36 z"
         id="path26" /></clipPath></defs><g
     transform="matrix(1.25,0,0,-1.25,0,25)"
     id="g10"><g
       id="g12"
       style="fill:none"><g
         clip-path="url(#clipPath16)"
         id="g14"
         style="fill:none"><g
           id="g20"
           style="fill:none"><g
             id="g22"
             style="fill:none" /><g
             id="g28"
             style="fill:none"><g
               clip-path="url(#clipPath24)"
               id="g30"
               style="fill:none"><path
                 d="m 32,-8 -36,0 0,36 36,0 0,-36 z"
                 id="path32"
                 style="fill:none;stroke:none" /></g></g></g></g></g><g
       transform="translate(23.3164,13.2197)"
       id="g34"><path
         d="m 0,0 -18.458,0 -1.886,-6.109 -0.695,0.591 1.688,6.406 19.351,0 0,1.477 -12.567,0 -1.855,3.415 -7.807,0 0,-18 L 0,-12.22 3.771,0 0,0 z"
         id="path36"
         style="fill:#cbc2ad;fill-opacity:1;fill-rule:nonzero;stroke:none" /></g></g></svg>