<?xml version="1.0" encoding="UTF-8" standalone="no"?>
<!-- Created with Inkscape (http://www.inkscape.org/) -->

<svg
   xmlns:dc="http://purl.org/dc/elements/1.1/"
   xmlns:cc="http://creativecommons.org/ns#"
   xmlns:rdf="http://www.w3.org/1999/02/22-rdf-syntax-ns#"
   xmlns:svg="http://www.w3.org/2000/svg"
   xmlns="http://www.w3.org/2000/svg"
   version="1.1"
   width="18.75"
   height="18.75"
   id="svg2"
   xml:space="preserve"><metadata
     id="metadata8"><rdf:RDF><cc:Work
         rdf:about=""><dc:format>image/svg+xml</dc:format><dc:type
           rdf:resource="http://purl.org/dc/dcmitype/StillImage" /><dc:title></dc:title></cc:Work></rdf:RDF></metadata><defs
     id="defs6"><clipPath
       id="clipPath16"><path
         d="M 0,15 15,15 15,0 0,0 0,15 z"
         id="path18" /></clipPath></defs><g
     transform="matrix(1.25,0,0,-1.25,0,18.75)"
     id="g10"><g
       id="g12"><g
         clip-path="url(#clipPath16)"
         id="g14"><g
           transform="translate(7.5,13)"
           id="g20"><path
             d="M 0,0 C 3.037,0 5.5,-2.462 5.5,-5.5 5.5,-8.537 3.037,-11 0,-11 c -3.038,0 -5.5,2.463 -5.5,5.5 0,3.038 2.462,5.5 5.5,5.5"
             id="path22"
             style="fill:#ffffff;fill-opacity:1;fill-rule:evenodd;stroke:none" /></g><g
           transform="translate(7.5,11)"
           id="g24"><path
             d="M 0,0 C 1.933,0 3.5,-1.567 3.5,-3.5 3.5,-5.433 1.933,-7 0,-7 c -1.933,0 -3.5,1.567 -3.5,3.5 0,1.933 1.567,3.5 3.5,3.5"
             id="path26"
             style="fill:#90c84b;fill-opacity:1;fill-rule:evenodd;stroke:none" /></g></g></g></g></svg>