<?xml version="1.0" encoding="UTF-8" standalone="no"?>
<!-- Created with Inkscape (http://www.inkscape.org/) -->

<svg
   xmlns:dc="http://purl.org/dc/elements/1.1/"
   xmlns:cc="http://creativecommons.org/ns#"
   xmlns:rdf="http://www.w3.org/1999/02/22-rdf-syntax-ns#"
   xmlns:svg="http://www.w3.org/2000/svg"
   xmlns="http://www.w3.org/2000/svg"
   version="1.1"
   width="282.5"
   height="282.5"
   id="svg2"
   xml:space="preserve"><metadata
     id="metadata8"><rdf:RDF><cc:Work
         rdf:about=""><dc:format>image/svg+xml</dc:format><dc:type
           rdf:resource="http://purl.org/dc/dcmitype/StillImage" /><dc:title></dc:title></cc:Work></rdf:RDF></metadata><defs
     id="defs6"><clipPath
       id="clipPath16"><path
         d="M 0,0 226,0 226,226 0,226 0,0 z"
         id="path18" /></clipPath></defs><g
     transform="matrix(1.25,0,0,-1.25,0,282.5)"
     id="g10"><g
       id="g12"><g
         clip-path="url(#clipPath16)"
         id="g14"><g
           transform="translate(113.123,27.3818)"
           id="g20"><path
             d="m 0,0 c -13.497,0 -22.497,9.75 -22.497,22.749 0,13.248 9.25,22.748 22.497,22.748 13.25,0 22,-9.5 22.25,-22.748 C 22.25,9.75 13.503,0 0,0 m 19.75,171.236 -5.5,-113.24 -28.5,0 -5.748,113.24 39.748,0 z m -19.874,27.382 c -62.408,0 -113,-50.592 -113,-113 0,-62.408 50.592,-113 113,-113 62.409,0 113.001,50.592 113.001,113 0,62.408 -50.592,113 -113.001,113"
             id="path22"
             style="fill:#f26d6e;fill-opacity:1;fill-rule:nonzero;stroke:none" /></g></g></g></g></svg>