<?xml version="1.0" encoding="UTF-8" standalone="no"?>
<!-- Created with Inkscape (http://www.inkscape.org/) -->

<svg
   xmlns:dc="http://purl.org/dc/elements/1.1/"
   xmlns:cc="http://creativecommons.org/ns#"
   xmlns:rdf="http://www.w3.org/1999/02/22-rdf-syntax-ns#"
   xmlns:svg="http://www.w3.org/2000/svg"
   xmlns="http://www.w3.org/2000/svg"
   xmlns:sodipodi="http://sodipodi.sourceforge.net/DTD/sodipodi-0.dtd"
   xmlns:inkscape="http://www.inkscape.org/namespaces/inkscape"
   version="1.1"
   width="14.267625"
   height="14.267625"
   id="svg2"
   xml:space="preserve"
   inkscape:version="0.48.4 r9939"
   sodipodi:docname="закрыть.svg"><sodipodi:namedview
     pagecolor="#ffffff"
     bordercolor="#666666"
     borderopacity="1"
     objecttolerance="10"
     gridtolerance="10"
     guidetolerance="10"
     inkscape:pageopacity="0"
     inkscape:pageshadow="2"
     inkscape:window-width="1920"
     inkscape:window-height="1018"
     id="namedview14"
     showgrid="false"
     inkscape:zoom="16.540945"
     inkscape:cx="7.1338124"
     inkscape:cy="7.1338124"
     inkscape:window-x="-8"
     inkscape:window-y="-8"
     inkscape:window-maximized="1"
     inkscape:current-layer="svg2" /><metadata
     id="metadata8"><rdf:RDF><cc:Work
         rdf:about=""><dc:format>image/svg+xml</dc:format><dc:type
           rdf:resource="http://purl.org/dc/dcmitype/StillImage" /><dc:title /></cc:Work></rdf:RDF></metadata><defs
     id="defs6"><clipPath
       id="clipPath16"><path
         d="m 0,0 11.414,0 0,11.414 L 0,11.414 0,0 z"
         id="path18" /></clipPath></defs><g
     transform="matrix(1.25,0,0,-1.25,0,14.267625)"
     id="g10"
     style="fill:#ffffff"><g
       id="g12"
       style="fill:#ffffff"><g
         clip-path="url(#clipPath16)"
         id="g14"
         style="fill:#ffffff"><g
           transform="translate(0.707,10.707)"
           id="g20"
           style="fill:#ffffff"><path
             d="M 0,0 10,-10"
             id="path22"
             style="fill:#ffffff;stroke:#373535;stroke-width:2;stroke-linecap:butt;stroke-linejoin:miter;stroke-miterlimit:10;stroke-opacity:1;stroke-dasharray:none" /></g><g
           transform="translate(0.707,0.707)"
           id="g24"
           style="fill:#ffffff"><path
             d="M 0,0 10,10"
             id="path26"
             style="fill:#ffffff;stroke:#373535;stroke-width:2;stroke-linecap:butt;stroke-linejoin:miter;stroke-miterlimit:10;stroke-opacity:1;stroke-dasharray:none" /></g></g></g></g><path
     style="fill:#ffffff;fill-opacity:1;fill-rule:nonzero"
     d="M 0.92168941,13.358027 0.0604428,12.49678 2.7353743,9.821342 5.4103059,7.1459036 2.7205269,4.4556152 0.03074792,1.7653267 0.89199171,0.90408292 1.7532355,0.04283912 4.443524,2.7326181 7.1338124,5.4223971 9.8241007,2.7326181 12.514389,0.04283912 13.375633,0.90408292 14.236877,1.7653267 11.547098,4.4556152 8.8573191,7.1459036 11.53225,9.821342 14.207182,12.49678 13.345936,13.358027 12.484689,14.219273 9.8092508,11.544342 7.1338124,8.8694103 4.4583742,11.544342 1.782936,14.219273 0.92168941,13.358027 z"
     id="path2995"
     inkscape:connector-curvature="0" /><path
     style="fill:#ffffff;fill-opacity:1;fill-rule:nonzero"
     d="M 0.95190782,13.327809 0.1208892,12.49679 2.7958255,9.8213469 5.4707619,7.1459036 2.7809878,4.45562 0.09121359,1.7653364 0.92222934,0.93432055 1.7532452,0.1033048 4.4435288,2.793079 7.1338124,5.4828531 9.8240958,2.793079 12.51438,0.1033048 13.345395,0.93432055 14.176411,1.7653364 11.486637,4.45562 8.7968631,7.1459036 11.471799,9.8213469 14.146736,12.49679 13.315717,13.327809 12.484698,14.158827 9.8092557,11.48389 7.1338124,8.8089543 4.4583694,11.48389 1.7829264,14.158827 0.95190782,13.327809 z"
     id="path2997"
     inkscape:connector-curvature="0" /><path
     style="fill:#ffffff;fill-opacity:1;fill-rule:nonzero"
     d="M 0.95190782,13.327809 0.1208892,12.49679 2.7958255,9.8213469 5.4707619,7.1459036 2.7809878,4.45562 0.09121359,1.7653364 0.92222934,0.93432055 1.7532452,0.1033048 4.4435288,2.793079 7.1338124,5.4828531 9.8240958,2.793079 12.51438,0.1033048 13.345395,0.93432055 14.176411,1.7653364 11.486637,4.45562 8.7968631,7.1459036 11.471799,9.8213469 14.146736,12.49679 13.315717,13.327809 12.484698,14.158827 9.8092557,11.48389 7.1338124,8.8089543 4.4583694,11.48389 1.7829264,14.158827 0.95190782,13.327809 z"
     id="path2999"
     inkscape:connector-curvature="0" /><path
     style="fill:#ffffff;fill-opacity:1;fill-rule:nonzero"
     d="M 0.95190782,13.327809 0.1208892,12.49679 2.7958255,9.8213469 5.4707619,7.1459036 2.7809878,4.45562 0.09121359,1.7653364 0.92222934,0.93432055 1.7532452,0.1033048 4.4435288,2.793079 7.1338124,5.4828531 9.8240958,2.793079 12.51438,0.1033048 13.345395,0.93432055 14.176411,1.7653364 11.486637,4.45562 8.7968631,7.1459036 11.471799,9.8213469 14.146736,12.49679 13.315717,13.327809 12.484698,14.158827 9.8092557,11.48389 7.1338124,8.8089543 4.4583694,11.48389 1.7829264,14.158827 0.95190782,13.327809 z"
     id="path3001"
     inkscape:connector-curvature="0" /><path
     style="fill:#ffffff;fill-opacity:1;fill-rule:nonzero;stroke:none"
     d=""
     id="path3003"
     inkscape:connector-curvature="0" /><path
     style="fill:#ffffff;fill-opacity:1;fill-rule:nonzero;stroke:none"
     d="M 0.94586221,13.327809 0.11484359,12.49679 2.7897799,9.8213469 5.4647163,7.1459036 2.7749422,4.45562 0.08516799,1.7653364 0.91618374,0.93432055 1.7471996,0.1033048 4.4374832,2.793079 7.1277668,5.4828531 9.8180502,2.793079 12.508334,0.1033048 13.33935,0.93432055 14.170366,1.7653364 11.480591,4.45562 8.7908175,7.1459036 11.465754,9.8213469 14.14069,12.49679 13.309672,13.327809 12.478653,14.158827 9.8032101,11.48389 7.1277668,8.8089543 4.4523238,11.48389 1.7768807,14.158827 0.94586221,13.327809 z"
     id="path3773"
     inkscape:connector-curvature="0" /><path
     style="fill:#ffffff;fill-opacity:1;fill-rule:nonzero;stroke:none"
     d="M 0.94586221,13.327809 0.11484359,12.49679 2.7897799,9.8213469 5.4647163,7.1459036 2.7749422,4.45562 0.08516799,1.7653364 0.91618374,0.93432055 1.7471996,0.1033048 4.4374832,2.793079 7.1277668,5.4828531 9.8180502,2.793079 12.508334,0.1033048 13.33935,0.93432055 14.170366,1.7653364 11.480591,4.45562 8.7908175,7.1459036 11.465754,9.8213469 14.14069,12.49679 13.309672,13.327809 12.478653,14.158827 9.8032101,11.48389 7.1277668,8.8089543 4.4523238,11.48389 1.7768807,14.158827 0.94586221,13.327809 z"
     id="path3775"
     inkscape:connector-curvature="0" /><path
     style="fill:#ffffff;fill-opacity:1;fill-rule:nonzero;stroke:none"
     d="M 0.94586221,13.327809 0.11484359,12.49679 2.7897799,9.8213469 5.4647163,7.1459036 2.7749422,4.45562 0.08516799,1.7653364 0.91618374,0.93432055 1.7471996,0.1033048 4.4374832,2.793079 7.1277668,5.4828531 9.8180502,2.793079 12.508334,0.1033048 13.33935,0.93432055 14.170366,1.7653364 11.480591,4.45562 8.7908175,7.1459036 11.465754,9.8213469 14.14069,12.49679 13.309672,13.327809 12.478653,14.158827 9.8032101,11.48389 7.1277668,8.8089543 4.4523238,11.48389 1.7768807,14.158827 0.94586221,13.327809 z"
     id="path3777"
     inkscape:connector-curvature="0" /><path
     style="fill:#ffffff;fill-opacity:1;fill-rule:nonzero;stroke:none;opacity:0.68093385;stroke-width:0.20000000000000001;stroke-miterlimit:4;stroke-dasharray:none"
     d="M 0.94586221,13.327809 0.11484359,12.49679 2.7897799,9.8213469 5.4647163,7.1459036 2.7749422,4.45562 0.08516799,1.7653364 0.91618374,0.93432055 1.7471996,0.1033048 4.4374832,2.793079 7.1277668,5.4828531 9.8180502,2.793079 12.508334,0.1033048 13.33935,0.93432055 14.170366,1.7653364 11.480591,4.45562 8.7908175,7.1459036 11.465754,9.8213469 14.14069,12.49679 13.309672,13.327809 12.478653,14.158827 9.8032101,11.48389 7.1277668,8.8089543 4.4523238,11.48389 1.7768807,14.158827 0.94586221,13.327809 z"
     id="path3779"
     inkscape:connector-curvature="0" /><path
     style="opacity:0.68093380999999997;fill:#ffffff;fill-opacity:1;fill-rule:nonzero;stroke:none"
     d="M 0.94586221,13.327809 0.11484359,12.49679 2.7897799,9.8213469 5.4647163,7.1459036 2.7749422,4.45562 0.08516799,1.7653364 0.91618374,0.93432055 1.7471996,0.1033048 4.4374832,2.793079 7.1277668,5.4828531 9.8180502,2.793079 12.508334,0.1033048 13.33935,0.93432055 14.170366,1.7653364 11.480591,4.45562 8.7908175,7.1459036 11.465754,9.8213469 14.14069,12.49679 13.309672,13.327809 12.478653,14.158827 9.8032101,11.48389 7.1277668,8.8089543 4.4523238,11.48389 1.7768807,14.158827 0.94586221,13.327809 z"
     id="path3789"
     inkscape:connector-curvature="0" /><path
     style="opacity:0.68093381;fill:#ffffff;fill-opacity:1;fill-rule:nonzero;stroke:none"
     d="M 0.94586221,13.327809 0.11484359,12.49679 2.7897799,9.8213469 5.4647163,7.1459036 2.7749422,4.45562 0.08516799,1.7653364 0.91618374,0.93432055 1.7471996,0.1033048 4.4374832,2.793079 7.1277668,5.4828531 9.8180502,2.793079 12.508334,0.1033048 13.33935,0.93432055 14.170366,1.7653364 11.480591,4.45562 8.7908175,7.1459036 11.465754,9.8213469 14.14069,12.49679 13.309672,13.327809 12.478653,14.158827 9.8032101,11.48389 7.1277668,8.8089543 4.4523238,11.48389 1.7768807,14.158827 0.94586221,13.327809 z"
     id="path3791"
     inkscape:connector-curvature="0" /></svg>