<?xml version="1.0" encoding="UTF-8" standalone="no"?>
<!-- Created with Inkscape (http://www.inkscape.org/) -->

<svg
   xmlns:dc="http://purl.org/dc/elements/1.1/"
   xmlns:cc="http://creativecommons.org/ns#"
   xmlns:rdf="http://www.w3.org/1999/02/22-rdf-syntax-ns#"
   xmlns:svg="http://www.w3.org/2000/svg"
   xmlns="http://www.w3.org/2000/svg"
   xmlns:sodipodi="http://sodipodi.sourceforge.net/DTD/sodipodi-0.dtd"
   xmlns:inkscape="http://www.inkscape.org/namespaces/inkscape"
   version="1.1"
   width="13.497375"
   height="18.911125"
   id="svg2985"
   xml:space="preserve"
   inkscape:version="0.48.4 r9939"
   sodipodi:docname="pause.svg"><sodipodi:namedview
     pagecolor="#ffffff"
     bordercolor="#666666"
     borderopacity="1"
     objecttolerance="10"
     gridtolerance="10"
     guidetolerance="10"
     inkscape:pageopacity="0"
     inkscape:pageshadow="2"
     inkscape:window-width="1240"
     inkscape:window-height="480"
     id="namedview14"
     showgrid="false"
     inkscape:zoom="12.479427"
     inkscape:cx="6.7486875"
     inkscape:cy="9.4555628"
     inkscape:window-x="709"
     inkscape:window-y="195"
     inkscape:window-maximized="0"
     inkscape:current-layer="svg2985" /><metadata
     id="metadata2991"><rdf:RDF><cc:Work
         rdf:about=""><dc:format>image/svg+xml</dc:format><dc:type
           rdf:resource="http://purl.org/dc/dcmitype/StillImage" /><dc:title /></cc:Work></rdf:RDF></metadata><defs
     id="defs2989"><clipPath
       id="clipPath2999"><path
         d="m 0,15.129 10.798,0 L 10.798,0 0,0 0,15.129 z"
         id="path3001" /></clipPath></defs><g
     transform="matrix(0.6482742,0,0,-0.66098659,3.1251436,14.503871)"
     id="g2993"
     style="fill:#ffffff"><g
       id="g2995"
       style="fill:#ffffff"><g
         clip-path="url(#clipPath2999)"
         id="g2997"
         style="fill:#ffffff"><g
           transform="translate(4,11.1289)"
           id="g3003"
           style="fill:#ffffff"><path
             d="M 0,0 0,3 C 0,3.55 -0.45,4 -1,4 L -3,4 C -3.549,4 -4,3.55 -4,3 l 0,-3 0,-3.564 0,-3.565 0,-3 c 0,-0.55 0.451,-1 1,-1 l 2,0 c 0.55,0 1,0.45 1,1 l 0,3 0,3.565 L 0,0 z"
             id="path3005"
             style="fill:#ffffff;fill-opacity:1;fill-rule:nonzero;stroke:none"
             inkscape:connector-curvature="0" /></g><g
           transform="translate(10.7979,7.5645)"
           id="g3007"
           style="fill:#ffffff"><path
             d="m 0,0 0,3.564 0,3 c 0,0.55 -0.451,1 -1,1 l -2,0 c -0.55,0 -1,-0.45 -1,-1 l 0,-3 0,-3.564 0,-3.563 0,-3 c 0,-0.551 0.45,-1 1,-1 l 2,0 c 0.549,0 1,0.449 1,1 l 0,3 L 0,0 z"
             id="path3009"
             style="fill:#ffffff;fill-opacity:1;fill-rule:nonzero;stroke:none"
             inkscape:connector-curvature="0" /></g></g></g></g></svg>