<?xml version="1.0" encoding="UTF-8" standalone="no"?>
<!-- Created with Inkscape (http://www.inkscape.org/) -->

<svg
   xmlns:dc="http://purl.org/dc/elements/1.1/"
   xmlns:cc="http://creativecommons.org/ns#"
   xmlns:rdf="http://www.w3.org/1999/02/22-rdf-syntax-ns#"
   xmlns:svg="http://www.w3.org/2000/svg"
   xmlns="http://www.w3.org/2000/svg"
   version="1.1"
   width="28.75"
   height="26.40625"
   id="svg2"
   xml:space="preserve"><metadata
     id="metadata8"><rdf:RDF><cc:Work
         rdf:about=""><dc:format>image/svg+xml</dc:format><dc:type
           rdf:resource="http://purl.org/dc/dcmitype/StillImage" /><dc:title></dc:title></cc:Work></rdf:RDF></metadata><defs
     id="defs6"><clipPath
       id="clipPath24"><path
         d="m 0,0 23,0 0,21.125 -23,0 L 0,0 z"
         id="path26" /></clipPath></defs><g
     transform="matrix(1.25,0,0,-1.25,0,26.40625)"
     id="g10"><path
       d="m 22,5.125 -3,0 0,14 3,0 0,-14 z"
       id="path12"
       style="fill:#000000;fill-opacity:1;fill-rule:nonzero;stroke:none" /><g
       transform="translate(13.1172,4.9932)"
       id="g14"><path
         d="M 0,0 -2.977,0.373 -1.234,14.264 1.742,13.891 0,0 z"
         id="path16"
         style="fill:#000000;fill-opacity:1;fill-rule:nonzero;stroke:none" /></g><path
       d="m 15,5.125 3,0 0,16 -3,0 0,-16 z"
       id="path18"
       style="fill:#000000;fill-opacity:1;fill-rule:nonzero;stroke:none" /><g
       id="g20"><g
         clip-path="url(#clipPath24)"
         id="g22"><g
           transform="translate(9.7188,12.2363)"
           id="g28"><path
             d="M 0,0 -1.909,1.908 C -1.91,1.908 -1.91,1.91 -1.91,1.91 l -1.298,1.297 c -0.008,0.008 -0.011,0.02 -0.018,0.027 l -1.443,1.442 c -0.201,0.203 -0.533,0.203 -0.734,0 L -6.139,3.941 C -6.34,3.74 -6.341,3.408 -6.139,3.207 L -4.842,1.91 c 10e-4,0 10e-4,-0.002 0.002,-0.002 L -3.614,0.683 -9.229,0.68 c -0.269,0 -0.49,-0.221 -0.49,-0.491 l 0,-1.107 c 0,-0.268 0.221,-0.488 0.49,-0.488 l 5.626,0.002 -2.525,-2.526 c -0.202,-0.203 -0.202,-0.533 0,-0.734 l 0.735,-0.734 c 0.202,-0.204 0.534,-0.204 0.735,-0.002 l 1.287,1.287 c 0,0.002 10e-4,0.002 10e-4,0.002 l 0.155,0.154 c 0.007,0.01 0.01,0.019 0.018,0.027 L 0,-0.734 C 0.201,-0.531 0.201,-0.201 0,0"
             id="path30"
             style="fill:#000000;fill-opacity:1;fill-rule:nonzero;stroke:none" /></g><path
           d="m 23,1.125 -23,0 0,3 23,0 0,-3 z"
           id="path32"
           style="fill:#000000;fill-opacity:1;fill-rule:nonzero;stroke:none" /><path
           d="m 4.5,0 -1.125,0 0,1.125 1.125,0 L 4.5,0 z"
           id="path34"
           style="fill:#000000;fill-opacity:1;fill-rule:nonzero;stroke:none" /><path
           d="M 19.125,0 18,0 l 0,1.125 1.125,0 0,-1.125 z"
           id="path36"
           style="fill:#000000;fill-opacity:1;fill-rule:nonzero;stroke:none" /></g></g></g></svg>