<?xml version="1.0" encoding="UTF-8" standalone="no"?>
<!-- Created with Inkscape (http://www.inkscape.org/) -->

<svg
   xmlns:dc="http://purl.org/dc/elements/1.1/"
   xmlns:cc="http://creativecommons.org/ns#"
   xmlns:rdf="http://www.w3.org/1999/02/22-rdf-syntax-ns#"
   xmlns:svg="http://www.w3.org/2000/svg"
   xmlns="http://www.w3.org/2000/svg"
   version="1.1"
   width="33.376499"
   height="25"
   id="svg2"
   xml:space="preserve"><metadata
     id="metadata8"><rdf:RDF><cc:Work
         rdf:about=""><dc:format>image/svg+xml</dc:format><dc:type
           rdf:resource="http://purl.org/dc/dcmitype/StillImage" /><dc:title></dc:title></cc:Work></rdf:RDF></metadata><defs
     id="defs6"><clipPath
       id="clipPath16"><path
         d="m 0,0 26.701,0 0,20 L 0,20 0,0 z"
         id="path18" /></clipPath></defs><g
     transform="matrix(1.25,0,0,-1.25,0,25)"
     id="g10"><g
       id="g12"><g
         clip-path="url(#clipPath16)"
         id="g14"><g
           transform="translate(24.7012,4.1943)"
           id="g20"><path
             d="m 0,0 c 0,-0.107 -0.087,-0.194 -0.194,-0.194 l -9.612,0 C -9.913,-0.194 -10,-0.107 -10,0 l 0,13.611 c 0,0.108 0.087,0.195 0.194,0.195 l 9.612,0 C -0.087,13.806 0,13.719 0,13.611 L 0,0 z m -5.093,-2.609 c -0.461,0 -0.834,0.373 -0.834,0.833 0,0.461 0.373,0.834 0.834,0.834 0.461,0 0.834,-0.373 0.834,-0.834 0,-0.46 -0.373,-0.833 -0.834,-0.833 m 6.676,18.415 -13.166,0 c -0.23,0 -0.417,-0.187 -0.417,-0.417 l 0,-19.166 c 0,-0.231 0.187,-0.417 0.417,-0.417 l 13.166,0 c 0.23,0 0.417,0.186 0.417,0.417 l 0,19.166 c 0,0.23 -0.187,0.417 -0.417,0.417"
             id="path22"
             style="fill:#000000;fill-opacity:1;fill-rule:nonzero;stroke:none" /></g><g
           transform="translate(8.2031,6.4326)"
           id="g24"><path
             d="m 0,0 3.197,3.195 c 0.201,0.202 0.201,0.533 0,0.735 L 1.288,5.838 c -0.001,0 -0.001,0.001 -0.001,0.002 l -1.298,1.296 c -0.008,0.008 -0.01,0.019 -0.017,0.027 l -1.444,1.442 c -0.201,0.203 -0.533,0.203 -0.734,0 L -2.941,7.871 c -0.202,-0.202 -0.203,-0.533 0,-0.735 L -1.645,5.84 C -1.644,5.839 -1.644,5.838 -1.643,5.838 L 0.266,3.93 c 0.202,-0.202 0.202,-0.533 0,-0.735 L -2.931,0 c -0.202,-0.203 -0.202,-0.534 0,-0.735 l 0.736,-0.735 c 0.201,-0.203 0.533,-0.202 0.734,-0.001 l 1.287,1.287 c 0,0.001 0.001,0.001 0.001,0.002 l 0.155,0.155 C -0.011,-0.019 -0.008,-0.009 0,0"
             id="path26"
             style="fill:#000000;fill-opacity:1;fill-rule:nonzero;stroke:none" /></g><g
           transform="translate(9.5488,9.4473)"
           id="g28"><path
             d="M 0,0 C 0,-0.269 -0.221,-0.489 -0.489,-0.489 L -9.06,-0.492 c -0.268,0 -0.489,0.221 -0.489,0.489 l 0,1.107 c 0,0.269 0.221,0.49 0.489,0.49 l 8.571,0.005 C -0.221,1.599 0,1.378 0,1.109 L 0,0 z"
             id="path30"
             style="fill:#000000;fill-opacity:1;fill-rule:nonzero;stroke:none" /></g></g></g></g></svg>