<?xml version="1.0" encoding="UTF-8" standalone="no"?>
<!-- Created with Inkscape (http://www.inkscape.org/) -->

<svg
   xmlns:dc="http://purl.org/dc/elements/1.1/"
   xmlns:cc="http://creativecommons.org/ns#"
   xmlns:rdf="http://www.w3.org/1999/02/22-rdf-syntax-ns#"
   xmlns:svg="http://www.w3.org/2000/svg"
   xmlns="http://www.w3.org/2000/svg"
   version="1.1"
   width="24.991501"
   height="22.484125"
   id="svg2"
   xml:space="preserve"><metadata
     id="metadata8"><rdf:RDF><cc:Work
         rdf:about=""><dc:format>image/svg+xml</dc:format><dc:type
           rdf:resource="http://purl.org/dc/dcmitype/StillImage" /><dc:title></dc:title></cc:Work></rdf:RDF></metadata><defs
     id="defs6"><clipPath
       id="clipPath16"><path
         d="m 0,0 19.993,0 0,17.986 L 0,17.986 0,0 z"
         id="path18" /></clipPath></defs><g
     transform="matrix(1.25,0,0,-1.25,0,22.484125)"
     id="g10"><g
       id="g12"><g
         clip-path="url(#clipPath16)"
         id="g14"><g
           transform="translate(14.6611,17.9873)"
           id="g20"><path
             d="m 0,0 c -1.26,0 -2.348,-0.433 -3.19,-1.138 l 1.828,-3.334 -4.945,-4.522 2.061,-3.562 -2.903,3.562 3.09,4.522 -2.461,3.629 C -7.301,-0.314 -8.253,0 -9.33,0 c -2.944,0 -5.331,-2.301 -5.331,-5.14 0,-0.542 0.088,-1.064 0.25,-1.555 1.546,-5.118 9.746,-11.292 9.746,-11.292 0,0 8.2,6.174 9.746,11.292 0.162,0.491 0.251,1.013 0.251,1.555 C 5.332,-2.301 2.944,0 0,0"
             id="path22"
             style="fill:#f26d6e;fill-opacity:1;fill-rule:evenodd;stroke:none" /></g></g></g></g></svg>