<?xml version="1.0" encoding="UTF-8" standalone="no"?>
<!-- Created with Inkscape (http://www.inkscape.org/) -->

<svg
   xmlns:dc="http://purl.org/dc/elements/1.1/"
   xmlns:cc="http://creativecommons.org/ns#"
   xmlns:rdf="http://www.w3.org/1999/02/22-rdf-syntax-ns#"
   xmlns:svg="http://www.w3.org/2000/svg"
   xmlns="http://www.w3.org/2000/svg"
   version="1.1"
   width="59.504375"
   height="72.053253"
   id="svg2"
   xml:space="preserve"><metadata
     id="metadata8"><rdf:RDF><cc:Work
         rdf:about=""><dc:format>image/svg+xml</dc:format><dc:type
           rdf:resource="http://purl.org/dc/dcmitype/StillImage" /><dc:title></dc:title></cc:Work></rdf:RDF></metadata><defs
     id="defs6"><clipPath
       id="clipPath16"><path
         d="m 0,0 47.604,0 0,57.642 L 0,57.642 0,0 z"
         id="path18" /></clipPath></defs><g
     transform="matrix(1.25,0,0,-1.25,0,72.05325)"
     id="g10"><g
       id="g12"><g
         clip-path="url(#clipPath16)"
         id="g14"><g
           transform="translate(29.4268,48.5078)"
           id="g20"><path
             d="m 0,0 -0.011,0 0,-2.799 -12.11,0 0,2.746 0,2.262 c 0,1.426 0.199,2.594 0.434,2.594 l 3.032,0 5.193,0 3.027,0 C -0.195,4.803 0,3.635 0,2.209 L 0,0 z m 18.177,-7.015 0,3.894 c 0,0.108 -0.025,0.216 -0.054,0.322 l -13.79,0 0,2.46 c -0.003,0 -0.005,0.001 -0.008,0.001 l 0,6.875 c 0,1.422 -1.164,2.598 -2.595,2.598 l -15.586,0 c -1.421,0 -2.59,-1.176 -2.59,-2.598 l 0,-6.336 0,-0.629 0,-2.371 -12.929,0 c -0.029,-0.106 -0.052,-0.214 -0.052,-0.322 l 0,-3.894 c 0,-0.137 0.033,-0.274 0.08,-0.409 l 47.443,0 c 0.048,0.135 0.081,0.272 0.081,0.409"
             id="path22"
             style="fill:#000000;fill-opacity:1;fill-rule:nonzero;stroke:none" /></g><g
           transform="translate(39.6357,37.167)"
           id="g24"><path
             d="m 0,0 -31.668,0 -5,0 1.242,-18.583 0.91,-13.596 c 0.184,-2.744 2.585,-4.988 5.334,-4.988 l 26.695,0 c 2.75,0 5.149,2.245 5.333,4.989 L 3.757,-18.583 4.666,-4.989 5,0 0,0 z"
             id="path26"
             style="fill:#000000;fill-opacity:1;fill-rule:nonzero;stroke:none" /></g></g></g></g></svg>