<?xml version="1.0" encoding="UTF-8" standalone="no"?>
<!-- Created with Inkscape (http://www.inkscape.org/) -->

<svg
   xmlns:dc="http://purl.org/dc/elements/1.1/"
   xmlns:cc="http://creativecommons.org/ns#"
   xmlns:rdf="http://www.w3.org/1999/02/22-rdf-syntax-ns#"
   xmlns:svg="http://www.w3.org/2000/svg"
   xmlns="http://www.w3.org/2000/svg"
   xmlns:sodipodi="http://sodipodi.sourceforge.net/DTD/sodipodi-0.dtd"
   xmlns:inkscape="http://www.inkscape.org/namespaces/inkscape"
   id="svg2"
   version="1.1"
   inkscape:version="0.48.4 r9939"
   width="32.5"
   height="50"
   xml:space="preserve"
   sodipodi:docname="обложка для книги.ai"><metadata
     id="metadata8"><rdf:RDF><cc:Work
         rdf:about=""><dc:format>image/svg+xml</dc:format><dc:type
           rdf:resource="http://purl.org/dc/dcmitype/StillImage" /><dc:title></dc:title></cc:Work></rdf:RDF></metadata><defs
     id="defs6"><clipPath
       clipPathUnits="userSpaceOnUse"
       id="clipPath16"><path
         d="M 0,0 26,0 26,40 0,40 0,0 z"
         id="path18" /></clipPath></defs><sodipodi:namedview
     pagecolor="#ffffff"
     bordercolor="#666666"
     borderopacity="1"
     objecttolerance="10"
     gridtolerance="10"
     guidetolerance="10"
     inkscape:pageopacity="0"
     inkscape:pageshadow="2"
     inkscape:window-width="640"
     inkscape:window-height="480"
     id="namedview4"
     showgrid="false"
     inkscape:zoom="4.72"
     inkscape:cx="16.25"
     inkscape:cy="25"
     inkscape:window-x="0"
     inkscape:window-y="0"
     inkscape:window-maximized="0"
     inkscape:current-layer="g10" /><g
     id="g10"
     inkscape:groupmode="layer"
     inkscape:label="обложка для книги"
     transform="matrix(1.25,0,0,-1.25,0,50)"><g
       id="g12"><g
         id="g14"
         clip-path="url(#clipPath16)"><g
           id="g20"
           transform="translate(25.5,34)"><path
             d="m 0,0 0,-33.5 -20.5,0"
             style="fill:none;stroke:#373535;stroke-opacity:1;stroke-width:1;stroke-linecap:butt;stroke-linejoin:miter;stroke-miterlimit:10;stroke-dasharray:none"
             id="path22" /></g><g
           id="g24"
           transform="translate(26,33.5)"><path
             d="m 0,0 -22.871,0 c -1.452,0 -2.629,1.569 -2.629,3 0,1.431 1.177,3 2.629,3 L -4,6"
             style="fill:none;stroke:#373535;stroke-opacity:1;stroke-width:1;stroke-linecap:butt;stroke-linejoin:miter;stroke-miterlimit:10;stroke-dasharray:none"
             id="path26" /></g><g
           id="g28"
           transform="translate(24,37)"><path
             d="m 0,0 -20.546,0 c -0.325,0 -0.591,-0.175 -0.591,-0.5 0,-0.326 0.266,-0.5 0.591,-0.5 L 0,-1 0,0 z"
             style="fill:#373535;fill-opacity:1;fill-rule:nonzero;stroke:none"
             id="path30" /></g><g
           id="g32"
           transform="translate(0.5,36.5)"><path
             d="m 0,0 0,-33 c 0,-1.431 1.177,-3 2.629,-3 L 5,-36 5,-30 5,-3 2.629,-3 C 1.177,-3 0,-1.431 0,0"
             style="fill:#373535;fill-opacity:1;fill-rule:nonzero;stroke:none"
             id="path34" /></g><g
           id="g36"
           transform="translate(0.5,36.5)"><path
             d="m 0,0 0,-33 c 0,-1.431 1.177,-3 2.629,-3 L 5,-36 5,-30 5,-3 2.629,-3 C 1.177,-3 0,-1.431 0,0 z"
             style="fill:none;stroke:#373535;stroke-opacity:1;stroke-width:1;stroke-linecap:butt;stroke-linejoin:miter;stroke-miterlimit:10;stroke-dasharray:none"
             id="path38" /></g></g></g></g></svg>