<?xml version="1.0" encoding="UTF-8" standalone="no"?>
<!-- Created with Inkscape (http://www.inkscape.org/) -->

<svg
   xmlns:dc="http://purl.org/dc/elements/1.1/"
   xmlns:cc="http://creativecommons.org/ns#"
   xmlns:rdf="http://www.w3.org/1999/02/22-rdf-syntax-ns#"
   xmlns:svg="http://www.w3.org/2000/svg"
   xmlns="http://www.w3.org/2000/svg"
   version="1.1"
   width="118.88187"
   height="113.06337"
   id="svg2"
   xml:space="preserve"><metadata
     id="metadata8"><rdf:RDF><cc:Work
         rdf:about=""><dc:format>image/svg+xml</dc:format><dc:type
           rdf:resource="http://purl.org/dc/dcmitype/StillImage" /><dc:title></dc:title></cc:Work></rdf:RDF></metadata><defs
     id="defs6" /><g
     transform="matrix(1.25,0,0,-1.25,0,113.06337)"
     id="g10"><g
       transform="translate(47.5524,90.4509)"
       id="g12"><path
         d="m 0,0 -13.519,-31.393 -34.032,-3.156 25.677,-22.559 -7.515,-33.343 L 0,-73 29.39,-90.451 21.874,-57.108 47.553,-34.549 13.52,-31.393 0,0 z m -16.996,-58.207 0.652,2.896 -2.23,1.959 -16.956,14.896 22.473,2.084 2.955,0.275 1.175,2.727 8.927,20.729 8.928,-20.729 1.174,-2.727 2.956,-0.275 22.472,-2.083 -16.956,-14.897 -2.23,-1.959 0.653,-2.896 4.962,-22.016 -19.406,11.522 -2.553,1.517 -2.552,-1.517 -19.407,-11.522 4.963,22.016 z"
         id="path14"
         style="fill:#c0bfbf;fill-opacity:1;fill-rule:nonzero;stroke:none" /></g></g></svg>