<?xml version="1.0" encoding="UTF-8" standalone="no"?>
<!-- Created with Inkscape (http://www.inkscape.org/) -->

<svg
   xmlns:dc="http://purl.org/dc/elements/1.1/"
   xmlns:cc="http://creativecommons.org/ns#"
   xmlns:rdf="http://www.w3.org/1999/02/22-rdf-syntax-ns#"
   xmlns:svg="http://www.w3.org/2000/svg"
   xmlns="http://www.w3.org/2000/svg"
   version="1.1"
   width="118.84762"
   height="17.092251"
   id="svg2"
   xml:space="preserve"><metadata
     id="metadata8"><rdf:RDF><cc:Work
         rdf:about=""><dc:format>image/svg+xml</dc:format><dc:type
           rdf:resource="http://purl.org/dc/dcmitype/StillImage" /><dc:title></dc:title></cc:Work></rdf:RDF></metadata><defs
     id="defs6"><clipPath
       id="clipPath16"><path
         d="m 0,0 95.078,0 0,13.674 L 0,13.674 0,0 z"
         id="path18" /></clipPath></defs><g
     transform="matrix(1.25,0,0,-1.25,0,17.09225)"
     id="g10"><g
       id="g12"><g
         clip-path="url(#clipPath16)"
         id="g14"><g
           transform="translate(71,8.3184)"
           id="g20"><path
             d="m 0,0 c -0.875,0 -1.523,-0.271 -1.984,-0.822 -0.459,-0.553 -0.702,-1.393 -0.702,-2.491 0,-1.097 0.243,-1.927 0.707,-2.478 0.467,-0.557 1.114,-0.824 1.979,-0.824 0.865,0 1.512,0.267 1.965,0.824 0.455,0.551 0.685,1.381 0.685,2.478 0,1.098 -0.238,1.938 -0.697,2.491 C 1.494,-0.271 0.848,0 0,0 m -0.018,-8.318 c -0.849,0 -1.582,0.127 -2.173,0.386 -0.6,0.256 -1.094,0.612 -1.467,1.061 -0.365,0.451 -0.637,0.99 -0.801,1.6 -0.164,0.595 -0.25,1.259 -0.25,1.958 0,0.697 0.096,1.363 0.287,1.971 0.186,0.613 0.484,1.155 0.879,1.6 0.397,0.449 0.893,0.806 1.488,1.058 0.59,0.256 1.282,0.387 2.055,0.387 0.801,0 1.512,-0.131 2.096,-0.387 C 2.688,1.064 3.182,0.705 3.564,0.258 3.943,-0.191 4.232,-0.729 4.422,-1.336 4.602,-1.939 4.697,-2.6 4.697,-3.299 4.697,-3.995 4.611,-4.656 4.437,-5.264 4.26,-5.881 3.98,-6.422 3.598,-6.871 3.221,-7.32 2.725,-7.676 2.127,-7.932 1.527,-8.191 0.803,-8.318 -0.018,-8.318"
             id="path22"
             style="fill:#373535;fill-opacity:1;fill-rule:nonzero;stroke:none" /></g><g
           transform="translate(81.2734,8.3184)"
           id="g24"><path
             d="m 0,0 c -0.875,0 -1.521,-0.271 -1.988,-0.822 -0.457,-0.553 -0.692,-1.393 -0.692,-2.491 0,-1.097 0.237,-1.927 0.703,-2.478 0.467,-0.557 1.116,-0.824 1.977,-0.824 0.865,0 1.508,0.267 1.963,0.817 0.455,0.558 0.687,1.388 0.687,2.485 0,1.098 -0.232,1.938 -0.695,2.491 C 1.496,-0.271 0.848,0 0,0 m -0.018,-8.318 c -0.845,0 -1.576,0.127 -2.171,0.386 -0.6,0.256 -1.096,0.612 -1.475,1.061 -0.361,0.451 -0.633,0.99 -0.799,1.6 -0.166,0.595 -0.246,1.259 -0.246,1.958 0,0.697 0.1,1.363 0.291,1.971 0.191,0.613 0.486,1.151 0.875,1.6 0.395,0.449 0.893,0.806 1.481,1.058 C -1.469,1.572 -0.775,1.703 0,1.703 0.805,1.703 1.508,1.572 2.098,1.316 2.688,1.064 3.188,0.707 3.568,0.258 3.943,-0.191 4.229,-0.729 4.416,-1.336 4.604,-1.939 4.693,-2.6 4.693,-3.299 4.693,-3.995 4.609,-4.656 4.438,-5.264 4.264,-5.881 3.982,-6.422 3.598,-6.871 3.217,-7.32 2.721,-7.676 2.123,-7.932 1.533,-8.191 0.812,-8.318 -0.018,-8.318"
             id="path26"
             style="fill:#373535;fill-opacity:1;fill-rule:nonzero;stroke:none" /></g><g
           transform="translate(94.0195,0.3066)"
           id="g28"><path
             d="M 0,0 0,0 C -0.217,0 -0.43,0.088 -0.578,0.24 L -3.795,3.574 C -3.98,3.771 -4.146,3.908 -4.291,3.99 -4.416,4.068 -4.627,4.104 -4.893,4.104 l -0.14,0 0,-3.307 c 0,-0.428 -0.354,-0.779 -0.78,-0.779 l -0.441,0 c -0.428,0 -0.771,0.351 -0.771,0.779 l 0,11.795 c 0,0.429 0.343,0.775 0.771,0.775 l 0.441,0 c 0.426,0 0.78,-0.346 0.78,-0.775 l 0,-6.711 c 0.24,0 0.428,0.025 0.558,0.065 0.135,0.042 0.272,0.136 0.401,0.283 l 2.611,2.984 c 0.158,0.176 0.389,0.281 0.635,0.281 0.178,0 0.344,-0.056 0.484,-0.158 l 0.28,-0.207 C 0.102,9.006 0.211,8.824 0.232,8.625 0.254,8.426 0.187,8.229 0.047,8.074 L -2.604,5.111 0.844,1.527 C 0.99,1.377 1.061,1.181 1.059,0.973 1.047,0.768 0.959,0.583 0.803,0.441 L 0.535,0.201 C 0.393,0.068 0.201,0 0,0"
             id="path30"
             style="fill:#373535;fill-opacity:1;fill-rule:nonzero;stroke:none" /></g><g
           transform="translate(59.3398,8.166)"
           id="g32"><path
             d="m 0,0 c -0.021,0 -0.039,-0.004 -0.063,-0.005 l -0.054,0 0,-0.007 c -0.406,-0.06 -0.717,-0.404 -0.717,-0.826 l 0,-0.105 c 0,-0.422 0.311,-0.768 0.717,-0.825 l 0,-0.015 0.117,0 0.516,0 0.318,0 c 0.312,0 0.592,-0.004 0.848,-0.015 0.24,-0.013 0.482,-0.059 0.744,-0.139 0.189,-0.059 0.377,-0.141 0.556,-0.247 0.178,-0.105 0.329,-0.244 0.465,-0.41 0.135,-0.166 0.248,-0.363 0.326,-0.59 0.09,-0.22 0.129,-0.482 0.129,-0.775 0,-0.785 -0.224,-1.322 -0.693,-1.646 C 2.727,-5.934 2.104,-6.102 1.35,-6.102 l -3.489,0 0,9.872 2.362,0 C 1.168,3.77 1.922,3.633 2.447,3.363 2.955,3.104 3.197,2.65 3.197,1.971 3.197,1.611 3.133,1.301 3.012,1.055 2.891,0.807 2.723,0.605 2.51,0.452 2.293,0.297 2.025,0.182 1.727,0.104 1.412,0.033 1.068,-0.005 0.713,-0.005 l -0.197,0 L 0.516,0 0,0 z m 5.787,-2.613 c -0.158,0.385 -0.367,0.72 -0.609,1 -0.248,0.275 -0.528,0.504 -0.828,0.676 -0.182,0.099 -0.366,0.191 -0.541,0.266 0.125,0.082 0.246,0.179 0.375,0.28 0.224,0.192 0.418,0.411 0.582,0.661 0.164,0.242 0.296,0.511 0.396,0.803 0.102,0.29 0.154,0.598 0.154,0.915 0,0.651 -0.13,1.209 -0.38,1.662 C 4.678,4.098 4.332,4.465 3.898,4.745 3.461,5.014 2.965,5.215 2.408,5.332 1.861,5.452 1.266,5.508 0.662,5.508 l -2.801,0 -0.306,0 -1,0 c -0.424,0 -0.772,-0.347 -0.772,-0.776 l 0,-11.795 c 0,-0.427 0.348,-0.779 0.772,-0.779 l 1,0 0.306,0 3.684,0 c 0.664,0 1.273,0.087 1.814,0.256 0.551,0.164 1.03,0.418 1.422,0.752 0.397,0.33 0.709,0.74 0.926,1.219 0.219,0.476 0.334,1.027 0.334,1.638 0,0.514 -0.088,0.967 -0.254,1.364"
             id="path34"
             style="fill:#373535;fill-opacity:1;fill-rule:nonzero;stroke:none" /></g><g
           transform="translate(14.248,8.3184)"
           id="g36"><path
             d="m 0,0 c -0.871,0 -1.521,-0.271 -1.986,-0.822 -0.461,-0.553 -0.7,-1.393 -0.7,-2.491 0,-1.097 0.243,-1.927 0.707,-2.478 0.471,-0.557 1.118,-0.824 1.979,-0.824 0.863,0 1.51,0.267 1.961,0.824 0.453,0.551 0.689,1.381 0.689,2.478 0,1.098 -0.236,1.938 -0.699,2.491 C 1.492,-0.271 0.857,0 0,0 m -0.016,-8.318 c -0.845,0 -1.578,0.13 -2.177,0.386 -0.602,0.256 -1.09,0.612 -1.467,1.061 -0.363,0.451 -0.631,0.99 -0.801,1.6 -0.164,0.595 -0.25,1.259 -0.25,1.958 0,0.697 0.098,1.363 0.285,1.971 0.196,0.613 0.494,1.155 0.887,1.6 0.393,0.449 0.887,0.806 1.482,1.058 C -1.463,1.572 -0.773,1.703 0,1.703 0.803,1.703 1.51,1.572 2.1,1.316 2.691,1.064 3.184,0.707 3.564,0.258 3.943,-0.191 4.232,-0.729 4.418,-1.336 4.6,-1.939 4.695,-2.6 4.695,-3.299 4.695,-3.995 4.609,-4.656 4.441,-5.264 4.264,-5.881 3.982,-6.422 3.6,-6.871 3.219,-7.32 2.725,-7.676 2.127,-7.932 1.527,-8.188 0.809,-8.318 -0.016,-8.318"
             id="path38"
             style="fill:#373535;fill-opacity:1;fill-rule:nonzero;stroke:none" /></g><g
           transform="translate(36.5352,0.3066)"
           id="g40"><path
             d="M 0,0 0,0 C -0.221,0 -0.43,0.088 -0.574,0.242 L -3.803,3.574 C -3.98,3.771 -4.152,3.908 -4.287,3.99 -4.424,4.068 -4.629,4.104 -4.902,4.104 l -0.143,0 0,-3.307 c 0,-0.428 -0.342,-0.779 -0.767,-0.779 l -0.444,0 c -0.426,0 -0.773,0.351 -0.773,0.779 l 0,11.795 c 0,0.429 0.347,0.775 0.773,0.775 l 0.444,0 c 0.425,0 0.767,-0.346 0.767,-0.775 l 0,-6.711 c 0.248,0 0.438,0.025 0.57,0.065 0.133,0.042 0.266,0.136 0.401,0.283 l 2.605,2.984 c 0.158,0.176 0.389,0.281 0.639,0.281 0.174,0 0.346,-0.056 0.486,-0.158 l 0.28,-0.207 C 0.104,9.006 0.215,8.824 0.234,8.625 0.25,8.426 0.182,8.229 0.049,8.074 L -2.609,5.111 0.84,1.527 C 0.984,1.377 1.059,1.181 1.051,0.973 1.041,0.768 0.951,0.584 0.797,0.441 L 0.531,0.201 C 0.387,0.068 0.195,0 0,0"
             id="path42"
             style="fill:#373535;fill-opacity:1;fill-rule:nonzero;stroke:none" /></g><g
           transform="translate(9.1855,11.332)"
           id="g44"><path
             d="M 0,0 C -0.246,0.547 -0.582,0.996 -1.002,1.35 -1.418,1.697 -1.914,1.956 -2.469,2.111 -3.01,2.266 -3.607,2.342 -4.221,2.342 l -2.879,0 -0.31,0 -1,0 c -0.43,0 -0.776,-0.347 -0.776,-0.776 l 0,-11.795 c 0,-0.427 0.346,-0.779 0.776,-0.779 l 0.533,0 c 0.424,0 0.777,0.352 0.777,0.779 l 0,10.851 2.446,0 c 0.375,0 0.742,-0.031 1.095,-0.091 0.334,-0.054 0.645,-0.174 0.911,-0.349 0.255,-0.18 0.46,-0.436 0.621,-0.776 0.158,-0.336 0.242,-0.795 0.242,-1.357 0,-0.481 -0.086,-0.883 -0.252,-1.199 -0.174,-0.312 -0.395,-0.567 -0.645,-0.758 -0.259,-0.19 -0.566,-0.33 -0.904,-0.408 -0.348,-0.082 -0.699,-0.121 -1.047,-0.121 l -0.039,0 -0.498,0 -0.07,0 0,-0.006 c -0.412,-0.039 -0.744,-0.381 -0.744,-0.805 l 0,-0.102 c 0,-0.421 0.332,-0.765 0.744,-0.8 l 0,-0.008 0.07,0 0.498,0 0.33,0 c 0.664,0 1.287,0.101 1.856,0.304 0.572,0.206 1.074,0.499 1.488,0.862 0.416,0.371 0.752,0.816 0.998,1.326 0.248,0.516 0.363,1.09 0.363,1.715 C 0.363,-1.201 0.248,-0.539 0,0"
             id="path46"
             style="fill:#373535;fill-opacity:1;fill-rule:nonzero;stroke:none" /></g><g
           transform="translate(44.6953,6.5957)"
           id="g48"><path
             d="m 0,0 c 0.012,-0.082 0.016,-0.135 0.016,-0.135 0,-0.021 0.007,-0.043 0.009,-0.064 0.018,-0.125 0.026,-0.25 0.034,-0.392 l -2.526,0 -2.14,0 c 0.076,0.683 0.314,1.234 0.701,1.649 0.357,0.383 0.859,0.6 1.488,0.653 l 0.125,0.006 c 0.051,0.006 0.113,0.006 0.174,0.006 0.305,0 0.598,-0.039 0.869,-0.119 0.26,-0.08 0.484,-0.213 0.68,-0.397 C -0.381,1.02 -0.229,0.764 -0.115,0.451 -0.066,0.316 -0.029,0.166 0,0 m 2.102,-1.184 0,0 c -0.004,0.358 -0.03,0.702 -0.073,1.018 0,0 -0.004,0 -0.004,0.002 C 2,-0.006 1.969,0.149 1.943,0.299 1.939,0.305 1.939,0.311 1.936,0.318 1.904,0.461 1.865,0.602 1.826,0.732 1.822,0.752 1.814,0.764 1.811,0.785 1.77,0.904 1.725,1.022 1.682,1.135 1.672,1.168 1.652,1.199 1.641,1.234 1.6,1.326 1.557,1.426 1.508,1.512 1.48,1.57 1.449,1.621 1.416,1.675 1.379,1.732 1.342,1.801 1.303,1.856 1.225,1.971 1.15,2.076 1.064,2.178 0.363,3.006 -0.699,3.426 -2.1,3.426 c -0.076,0 -0.144,-0.002 -0.213,-0.002 l -0.007,0 C -2.348,3.418 -2.383,3.418 -2.414,3.418 l -0.053,-0.002 0,-0.004 C -3.094,3.375 -3.662,3.241 -4.148,3.012 -4.732,2.738 -5.217,2.367 -5.594,1.904 -5.973,1.445 -6.258,0.902 -6.443,0.293 c -0.188,-0.6 -0.28,-1.248 -0.28,-1.922 0,-0.736 0.086,-1.413 0.258,-2.016 0.174,-0.607 0.461,-1.142 0.846,-1.578 0.385,-0.437 0.902,-0.781 1.521,-1.016 0.608,-0.239 1.368,-0.357 2.248,-0.357 0.842,0 1.567,0.077 2.157,0.233 0.025,0.004 0.05,0.012 0.072,0.019 0.078,0.018 0.152,0.041 0.225,0.059 0.021,0.006 0.042,0.014 0.066,0.019 0.109,0.032 0.205,0.059 0.283,0.081 0.012,0.007 0.031,0.009 0.047,0.013 l 0.164,0.051 c 0.047,0.016 0.074,0.025 0.082,0.029 0.195,0.065 0.354,0.199 0.445,0.387 0.094,0.184 0.1,0.393 0.034,0.592 l -0.051,0.131 c -0.113,0.316 -0.436,0.535 -0.776,0.535 -0.07,0 -0.127,-0.008 -0.191,-0.024 l 0,0.002 -0.244,-0.068 -0.074,-0.022 c -0.244,-0.07 -0.481,-0.128 -0.705,-0.173 -0.227,-0.047 -0.463,-0.084 -0.698,-0.11 -0.232,-0.021 -0.5,-0.033 -0.8,-0.033 -0.893,0 -1.588,0.25 -2.065,0.74 -0.453,0.461 -0.707,1.094 -0.756,1.879 l 2.168,0 3.451,0 0.344,0 c 0.424,0 0.774,0.352 0.774,0.776 l 0,0.177 0,0.119 z"
             id="path50"
             style="fill:#373535;fill-opacity:1;fill-rule:nonzero;stroke:none" /></g><g
           transform="translate(28.1523,1.4824)"
           id="g52"><path
             d="m 0,0 -0.051,0.131 c -0.115,0.316 -0.431,0.535 -0.771,0.535 -0.057,0 -0.119,-0.004 -0.17,-0.018 l -0.002,0.01 -0.18,-0.056 C -1.215,0.59 -1.246,0.58 -1.281,0.566 L -1.383,0.537 c 0,0 -0.008,0 -0.008,-0.002 C -1.627,0.47 -1.844,0.416 -2.059,0.381 -2.574,0.297 -3.01,0.238 -3.447,0.238 c -0.924,0 -1.633,0.268 -2.11,0.799 -0.474,0.535 -0.716,1.344 -0.716,2.412 0,0.487 0.06,0.947 0.191,1.363 0.123,0.409 0.309,0.768 0.557,1.057 0.248,0.287 0.55,0.519 0.908,0.685 0.369,0.163 0.795,0.247 1.279,0.247 0.479,0 0.871,-0.006 1.252,-0.084 0.193,-0.038 0.402,-0.096 0.643,-0.166 0.015,-0.012 0.039,-0.026 0.06,-0.03 L -1.316,6.504 C -1.07,6.436 -1.051,6.426 -1.051,6.426 -0.975,6.4 -0.902,6.391 -0.822,6.391 c 0.34,0 0.656,0.222 0.771,0.541 L 0,7.062 c 0.068,0.196 0.055,0.403 -0.029,0.59 -0.096,0.188 -0.25,0.323 -0.45,0.389 -0.013,0.006 -0.363,0.121 -0.937,0.27 l -0.045,0.007 -0.008,0 C -2.016,8.451 -2.66,8.521 -3.395,8.521 -4.191,8.521 -4.912,8.393 -5.525,8.139 -6.137,7.883 -6.662,7.521 -7.078,7.068 -7.494,6.613 -7.814,6.071 -8.025,5.449 c -0.209,-0.617 -0.317,-1.289 -0.317,-2 0,-0.724 0.088,-1.393 0.262,-1.988 0.176,-0.605 0.459,-1.131 0.834,-1.561 0.387,-0.433 0.894,-0.778 1.519,-1.017 0.618,-0.243 1.381,-0.365 2.262,-0.365 0.697,0 1.336,0.064 1.916,0.195 0.201,0.048 0.41,0.098 0.641,0.166 l 0.133,0.033 -0.004,0.017 c 0.187,0.055 0.291,0.089 0.3,0.092 0.2,0.065 0.354,0.2 0.45,0.387 C 0.055,-0.408 0.068,-0.199 0,0"
             id="path54"
             style="fill:#373535;fill-opacity:1;fill-rule:nonzero;stroke:none" /></g><g
           transform="translate(53.6719,1.2109)"
           id="g56"><path
             d="m 0,0 -0.02,0.078 c -0.084,0.346 -0.392,0.59 -0.744,0.59 -0.056,0 -0.121,-0.008 -0.168,-0.022 L -1.174,0.609 -1.314,0.59 C -1.541,0.562 -1.787,0.551 -2.041,0.551 c -0.492,0 -0.867,0.119 -1.098,0.363 -0.238,0.246 -0.355,0.715 -0.355,1.395 l 0,4.525 0.613,0 1.035,0 0.617,0 c 0.424,0 0.77,0.352 0.77,0.779 l 0,0.096 c 0,0.43 -0.346,0.775 -0.77,0.775 l -0.617,0 -1.035,0 -0.613,0 0,0.291 0,0.772 0,0.857 c 0,0.424 -0.352,0.776 -0.779,0.776 l -0.42,0 c -0.424,0 -0.776,-0.352 -0.776,-0.776 l 0,-0.857 0,-0.772 0,-6.865 c 0,-0.56 0.076,-1.035 0.223,-1.416 0.152,-0.381 0.375,-0.7 0.656,-0.941 0.272,-0.244 0.611,-0.42 0.992,-0.521 0.366,-0.103 0.787,-0.151 1.231,-0.151 0.224,0 0.437,0.008 0.64,0.017 l 0.004,0 0.026,0 c 0.01,0 0.224,0.009 0.57,0.061 0.365,0.057 0.559,0.1 0.563,0.104 0.203,0.047 0.373,0.169 0.478,0.351 C 0.025,-0.412 0.051,-0.206 0,0"
             id="path58"
             style="fill:#373535;fill-opacity:1;fill-rule:nonzero;stroke:none" /></g></g></g></g></svg>