<?xml version="1.0" encoding="UTF-8" standalone="no"?>
<!-- Created with Inkscape (http://www.inkscape.org/) -->

<svg
   xmlns:dc="http://purl.org/dc/elements/1.1/"
   xmlns:cc="http://creativecommons.org/ns#"
   xmlns:rdf="http://www.w3.org/1999/02/22-rdf-syntax-ns#"
   xmlns:svg="http://www.w3.org/2000/svg"
   xmlns="http://www.w3.org/2000/svg"
   version="1.1"
   width="30"
   height="30"
   id="svg2"
   xml:space="preserve"><metadata
     id="metadata8"><rdf:RDF><cc:Work
         rdf:about=""><dc:format>image/svg+xml</dc:format><dc:type
           rdf:resource="http://purl.org/dc/dcmitype/StillImage" /><dc:title></dc:title></cc:Work></rdf:RDF></metadata><defs
     id="defs6"><clipPath
       id="clipPath16"><path
         d="M 0,24 24,24 24,0 0,0 0,24 z"
         id="path18" /></clipPath></defs><g
     transform="matrix(1.25,0,0,-1.25,0,30)"
     id="g10"><g
       id="g12"><g
         clip-path="url(#clipPath16)"
         id="g14"><g
           transform="translate(10.4082,9.3496)"
           id="g20"><path
             d="m 0,0 c -2.346,0 -4.247,1.898 -4.247,4.239 0,2.342 1.901,4.24 4.247,4.24 2.345,0 4.248,-1.898 4.248,-4.24 C 4.248,1.898 2.345,0 0,0 m 9.924,-3.646 -2.429,2.425 c -0.224,0.224 -0.587,0.224 -0.809,0 l -0.067,-0.065 -1.141,1.14 c -0.03,0.029 -0.065,0.044 -0.099,0.065 0.955,1.183 1.529,2.684 1.529,4.32 0,3.809 -3.093,6.896 -6.908,6.896 -3.815,0 -6.908,-3.087 -6.908,-6.896 0,-3.807 3.093,-6.894 6.908,-6.894 1.64,0 3.145,0.573 4.329,1.525 0.021,-0.033 0.036,-0.068 0.066,-0.098 l 1.141,-1.14 -0.065,-0.066 c -0.224,-0.222 -0.224,-0.584 0,-0.807 L 7.9,-5.666 c 0.223,-0.224 0.585,-0.224 0.81,0 l 1.214,1.213 c 0.224,0.223 0.224,0.584 0,0.807"
             id="path22"
             style="fill:#000000;fill-opacity:1;fill-rule:evenodd;stroke:none" /></g></g></g></g></svg>