<?xml version="1.0" encoding="UTF-8" standalone="no"?>
<!-- Created with Inkscape (http://www.inkscape.org/) -->

<svg
   xmlns:dc="http://purl.org/dc/elements/1.1/"
   xmlns:cc="http://creativecommons.org/ns#"
   xmlns:rdf="http://www.w3.org/1999/02/22-rdf-syntax-ns#"
   xmlns:svg="http://www.w3.org/2000/svg"
   xmlns="http://www.w3.org/2000/svg"
   version="1.1"
   width="42.499374"
   height="42.5"
   id="svg2"
   xml:space="preserve"><metadata
     id="metadata8"><rdf:RDF><cc:Work
         rdf:about=""><dc:format>image/svg+xml</dc:format><dc:type
           rdf:resource="http://purl.org/dc/dcmitype/StillImage" /><dc:title></dc:title></cc:Work></rdf:RDF></metadata><defs
     id="defs6"><clipPath
       id="clipPath16"><path
         d="m 5.5,5.499 22.999,0 0,23.001 -22.999,0 0,-23.001 z"
         id="path18" /></clipPath></defs><g
     transform="matrix(1.25,0,0,-1.25,0,42.5)"
     id="g10"><g
       id="g12"><g
         clip-path="url(#clipPath16)"
         id="g14"><g
           transform="translate(16.9995,20.7803)"
           id="g20"><path
             d="m 0,0 c -2.087,0 -3.78,-1.693 -3.78,-3.781 0,-2.087 1.693,-3.781 3.78,-3.781 2.088,0 3.781,1.694 3.781,3.781 C 3.781,-1.692 2.088,0 0,0"
             id="path22"
             style="fill:#ffffff;fill-opacity:1;fill-rule:nonzero;stroke:none" /></g><g
           transform="translate(16.9995,11.1875)"
           id="g24"><path
             d="m 0,0 c -3.209,0 -5.811,2.603 -5.811,5.813 0,3.209 2.602,5.812 5.811,5.812 3.21,0 5.813,-2.603 5.813,-5.812 C 5.813,2.603 3.21,0 0,0 m 11.263,8.503 c -0.154,0.152 -0.36,0.238 -0.576,0.238 l -2.368,0 C 8.213,9.043 8.092,9.338 7.955,9.624 l 1.673,1.673 c 0.318,0.318 0.318,0.833 0,1.151 l -2.991,2.991 c -0.153,0.153 -0.36,0.239 -0.575,0.239 -0.215,0 -0.423,-0.086 -0.576,-0.239 L 3.813,13.766 C 3.526,13.903 3.231,14.024 2.93,14.13 l 0,2.369 c 0,0.449 -0.365,0.814 -0.814,0.814 l -4.23,0 c -0.449,0 -0.814,-0.365 -0.814,-0.814 l 0,-2.368 c -0.301,-0.107 -0.597,-0.228 -0.883,-0.365 l -1.673,1.674 c -0.153,0.153 -0.36,0.238 -0.576,0.238 -0.215,0 -0.422,-0.085 -0.575,-0.238 l -2.991,-2.992 c -0.153,-0.152 -0.239,-0.359 -0.239,-0.574 0,-0.216 0.086,-0.423 0.239,-0.576 L -7.953,9.625 C -8.09,9.339 -8.211,9.043 -8.317,8.742 l -2.369,0 c -0.449,0 -0.813,-0.365 -0.813,-0.814 L -11.5,3.697 c 0,-0.216 0.086,-0.423 0.239,-0.575 0.153,-0.153 0.359,-0.238 0.575,-0.238 l 2.369,0 C -8.211,2.582 -8.09,2.286 -7.953,2 L -9.626,0.327 c -0.153,-0.152 -0.239,-0.359 -0.239,-0.575 0,-0.216 0.086,-0.423 0.239,-0.575 l 2.99,-2.991 c 0.153,-0.154 0.36,-0.24 0.575,-0.24 0.216,0 0.424,0.086 0.576,0.24 l 1.673,1.672 c 0.287,-0.137 0.582,-0.257 0.884,-0.365 l 0,-2.367 c 0,-0.449 0.364,-0.814 0.814,-0.814 l 4.229,0 c 0.217,0 0.424,0.085 0.576,0.238 0.153,0.153 0.239,0.36 0.239,0.575 l 0,2.368 c 0.301,0.108 0.596,0.228 0.882,0.365 l 1.673,-1.673 c 0.16,-0.16 0.368,-0.239 0.577,-0.239 0.207,0 0.416,0.079 0.574,0.239 l 2.992,2.991 c 0.152,0.152 0.238,0.359 0.238,0.575 0,0.216 -0.086,0.423 -0.238,0.575 L 7.954,2 c 0.138,0.286 0.259,0.581 0.364,0.883 l 2.369,0 c 0.449,0 0.813,0.364 0.813,0.814 l 0,4.231 c 0,0.215 -0.085,0.422 -0.237,0.575"
             id="path26"
             style="fill:#ffffff;fill-opacity:1;fill-rule:nonzero;stroke:none" /></g></g></g></g></svg>