<?xml version="1.0" encoding="UTF-8" standalone="no"?>
<!-- Created with Inkscape (http://www.inkscape.org/) -->

<svg
   xmlns:dc="http://purl.org/dc/elements/1.1/"
   xmlns:cc="http://creativecommons.org/ns#"
   xmlns:rdf="http://www.w3.org/1999/02/22-rdf-syntax-ns#"
   xmlns:svg="http://www.w3.org/2000/svg"
   xmlns="http://www.w3.org/2000/svg"
   version="1.1"
   width="42.500626"
   height="42.5"
   id="svg2"
   xml:space="preserve"><metadata
     id="metadata8"><rdf:RDF><cc:Work
         rdf:about=""><dc:format>image/svg+xml</dc:format><dc:type
           rdf:resource="http://purl.org/dc/dcmitype/StillImage" /><dc:title></dc:title></cc:Work></rdf:RDF></metadata><defs
     id="defs6"><clipPath
       id="clipPath16"><path
         d="m 7,6.5 20.001,0 0,21.001 L 7,27.501 7,6.5 z"
         id="path18" /></clipPath></defs><g
     transform="matrix(1.25,0,0,-1.25,0,42.5)"
     id="g10"><g
       id="g12"><g
         clip-path="url(#clipPath16)"
         id="g14"><g
           transform="translate(20.0034,8.0234)"
           id="g20"><path
             d="m 0,0 c -0.977,-0.288 -1.99,-0.433 -2.997,-0.433 -1.642,0 -3.27,0.399 -4.741,1.144 L -9.959,-1.523 -10.55,4.666 -3.588,4.887 -6.091,2.365 C -4.397,1.664 -2.479,1.554 -0.695,2.083 2.691,3.09 4.895,6.118 4.663,9.441 L 6.975,9.584 C 7.277,5.253 4.41,1.312 0,0 m 0.086,15.587 c -1.695,0.705 -3.615,0.814 -5.398,0.283 -3.387,-1.004 -5.587,-4.029 -5.359,-7.359 l -2.311,-0.143 c -0.3,4.337 2.568,8.276 6.971,9.584 2.58,0.765 5.374,0.501 7.747,-0.706 l 2.219,2.231 0.591,-6.19 -6.966,-0.219 2.506,2.519 z"
             id="path22"
             style="fill:#000000;fill-opacity:1;fill-rule:evenodd;stroke:none" /></g></g></g></g></svg>